<mxfile host="app.diagrams.net" modified="2024-04-04T02:33:54.533Z" agent="5.0 (Macintosh; Intel Mac OS X 10_15_7) AppleWebKit/537.36 (KHTML, like Gecko) Chrome/120.0.0.0 Safari/537.36" version="20.7.4" etag="ClveBcBBPx0h661kiq9Y" type="github">
  <diagram id="upsUXebz3hvRoS3eGzFq" name="第 1 页">
    <mxGraphModel dx="954" dy="606" grid="1" gridSize="10" guides="1" tooltips="1" connect="1" arrows="1" fold="1" page="1" pageScale="1" pageWidth="827" pageHeight="1169" math="0" shadow="0">
      <root>
        <mxCell id="0" />
        <mxCell id="1" parent="0" />
        <mxCell id="rCkuZsrDK85YT039ykgs-5" style="edgeStyle=orthogonalEdgeStyle;rounded=0;orthogonalLoop=1;jettySize=auto;html=1;exitX=0.5;exitY=1;exitDx=0;exitDy=0;" edge="1" parent="1" source="rCkuZsrDK85YT039ykgs-1">
          <mxGeometry relative="1" as="geometry">
            <mxPoint x="354" y="260" as="targetPoint" />
          </mxGeometry>
        </mxCell>
        <mxCell id="rCkuZsrDK85YT039ykgs-1" value="Sync Dimension" style="rounded=0;whiteSpace=wrap;html=1;" vertex="1" parent="1">
          <mxGeometry x="294" y="140" width="120" height="80" as="geometry" />
        </mxCell>
        <mxCell id="rCkuZsrDK85YT039ykgs-8" value="" style="edgeStyle=orthogonalEdgeStyle;rounded=0;orthogonalLoop=1;jettySize=auto;html=1;" edge="1" parent="1" source="rCkuZsrDK85YT039ykgs-6" target="rCkuZsrDK85YT039ykgs-7">
          <mxGeometry relative="1" as="geometry" />
        </mxCell>
        <mxCell id="rCkuZsrDK85YT039ykgs-9" value="Y" style="edgeLabel;html=1;align=center;verticalAlign=middle;resizable=0;points=[];" vertex="1" connectable="0" parent="rCkuZsrDK85YT039ykgs-8">
          <mxGeometry x="-0.1" y="-3" relative="1" as="geometry">
            <mxPoint as="offset" />
          </mxGeometry>
        </mxCell>
        <mxCell id="rCkuZsrDK85YT039ykgs-11" value="N" style="edgeStyle=orthogonalEdgeStyle;rounded=0;orthogonalLoop=1;jettySize=auto;html=1;" edge="1" parent="1" source="rCkuZsrDK85YT039ykgs-6" target="rCkuZsrDK85YT039ykgs-10">
          <mxGeometry relative="1" as="geometry" />
        </mxCell>
        <mxCell id="rCkuZsrDK85YT039ykgs-6" value="excel path exists?" style="rhombus;whiteSpace=wrap;html=1;" vertex="1" parent="1">
          <mxGeometry x="314" y="260" width="80" height="80" as="geometry" />
        </mxCell>
        <mxCell id="rCkuZsrDK85YT039ykgs-13" value="" style="edgeStyle=orthogonalEdgeStyle;rounded=0;orthogonalLoop=1;jettySize=auto;html=1;" edge="1" parent="1" source="rCkuZsrDK85YT039ykgs-7" target="rCkuZsrDK85YT039ykgs-12">
          <mxGeometry relative="1" as="geometry">
            <Array as="points">
              <mxPoint x="194" y="370" />
              <mxPoint x="340" y="370" />
            </Array>
          </mxGeometry>
        </mxCell>
        <mxCell id="rCkuZsrDK85YT039ykgs-7" value="Get info from Excel" style="whiteSpace=wrap;html=1;" vertex="1" parent="1">
          <mxGeometry x="134" y="270" width="120" height="60" as="geometry" />
        </mxCell>
        <mxCell id="rCkuZsrDK85YT039ykgs-14" style="edgeStyle=orthogonalEdgeStyle;rounded=0;orthogonalLoop=1;jettySize=auto;html=1;exitX=0.5;exitY=1;exitDx=0;exitDy=0;entryX=0.5;entryY=0;entryDx=0;entryDy=0;" edge="1" parent="1" source="rCkuZsrDK85YT039ykgs-10" target="rCkuZsrDK85YT039ykgs-12">
          <mxGeometry relative="1" as="geometry">
            <mxPoint x="340" y="410" as="targetPoint" />
          </mxGeometry>
        </mxCell>
        <mxCell id="rCkuZsrDK85YT039ykgs-10" value="Get info from Dev-Portal" style="whiteSpace=wrap;html=1;" vertex="1" parent="1">
          <mxGeometry x="454" y="270" width="120" height="60" as="geometry" />
        </mxCell>
        <mxCell id="rCkuZsrDK85YT039ykgs-12" value="store in dq_dim_${ouId}" style="whiteSpace=wrap;html=1;" vertex="1" parent="1">
          <mxGeometry x="294" y="410" width="120" height="60" as="geometry" />
        </mxCell>
      </root>
    </mxGraphModel>
  </diagram>
</mxfile>
